<?xml version="1.0"?>
<svg width="500" height="500" xmlns="http://www.w3.org/2000/svg" xmlns:svg="http://www.w3.org/2000/svg">
 <!-- Created with SVG-edit - http://svg-edit.googlecode.com/ -->
 <g>
  <title>Layer 1</title>
  <path id="svg_2" d="m22.5,71.00107l0,0c0,-26.78641 23.29928,-48.50107 52.0404,-48.50107l23.65472,0l0,0l113.5427,0l212.89247,0c13.80201,0 27.03868,5.10991 36.79817,14.20563c9.75942,9.09572 15.24225,21.43216 15.24225,34.29544l0,121.25267l0,0l0,72.75157l0,0c0,26.78642 -23.29926,48.50106 -52.04039,48.50106l-212.89249,0l-145.6595,123.32694l32.1168,-123.32694l-23.65472,0c-28.74112,0 -52.0404,-21.71464 -52.0404,-48.50106l0,0l0,-72.75157l0,0l-0.00001,-121.25267l0,0z" stroke-width="45" fill="#ffffff" stroke="#ff7f00"/>
 </g>
</svg>