<?xml version="1.0"?>
<svg width="500" height="500" xmlns="http://www.w3.org/2000/svg" xmlns:svg="http://www.w3.org/2000/svg">
 <!-- Created with SVG-edit - http://svg-edit.googlecode.com/ -->
 <g>
  <title>Layer 1</title>
  <path stroke="#7f3f00" fill="#ffffff" stroke-width="45" d="m22.5,71.00107l0,0c0,-26.786406 23.29928,-48.50107 52.040396,-48.50107l23.654725,0l0,0l113.542695,0l212.892475,0c13.802012,0 27.038675,5.109909 36.798165,14.205631c9.759423,9.095722 15.242257,21.432163 15.242257,34.295439l0,121.252669l0,0l0,72.751574l0,0c0,26.786419 -23.299266,48.501058 -52.040396,48.501058l-212.892488,0l-145.659497,123.326935l32.116801,-123.326935l-23.654725,0c-28.741116,0 -52.040396,-21.714639 -52.040396,-48.501058l0,0l0,-72.751574l0,0l-0.000014,-121.252669z" id="svg_2"/>
 </g>
</svg>